<svg id="Layer_1" data-name="Layer 1" xmlns="http://www.w3.org/2000/svg" viewBox="0 0 362.62 351.84"><title>s</title><path d="M82.49,391.06S36.14,20.33,320.7,93.5c38.21-35.77,75.61-29.27,75.61-29.27s41.72.85,43.9,33.33c2.08,31-27.64,40.66-27.64,40.66s-30.9,11.38-67.48,3.25c-56.23,58.35,35.77,168.29,35.77,168.29C407.57,354.21,411.75,387,411.75,387s1.39,7.5-5.69,13.82c-9.47,8.45-34.14-39.84-34.14-39.84s1.62,36.58-4.07,48-22.76,3.91-20.32-44.72c-17.74,48.06-35,45.53-35,45.53s-15.78,1.24,20.32-73.17c8.25-16.23,4.88-29.27-.81-15.45s-72.36,56.91-129.27,54.47S111.75,384.56,82.49,391.06Z" transform="translate(-78.69 -62.77)" fill="none" stroke="#160f0f" stroke-miterlimit="10" stroke-width="2"/><path d="M130.94,357.36S18.75,124,319.56,124c-44.71,81.31-19.51,184.56-19.51,184.56s-13.82,27.64-69.92,29.27S147.2,344.35,130.94,357.36Z" transform="translate(-78.69 -62.77)" fill="none" stroke="#050606" stroke-miterlimit="10" stroke-width="2"/><ellipse cx="304.29" cy="40.12" rx="28.46" ry="22.76" fill="none" stroke="#160f0f" stroke-miterlimit="10" stroke-width="2"/><path d="M300.92,172.22C185.52,160.24,121,211,121,211" transform="translate(-78.69 -62.77)" fill="none" stroke="#ee2324" stroke-miterlimit="10" stroke-width="2"/><path d="M112.37,250s72.74-47.16,180.32-23.58" transform="translate(-78.69 -62.77)" fill="none" stroke="#ee2324" stroke-miterlimit="10" stroke-width="2"/><path d="M112.37,292.61s94.57-48.78,182.18-24.39" transform="translate(-78.69 -62.77)" fill="none" stroke="#ee2324" stroke-miterlimit="10" stroke-width="2"/><path d="M121,331s56.78-44.51,178.12-28.76" transform="translate(-78.69 -62.77)" fill="none" stroke="#ee2324" stroke-miterlimit="10" stroke-width="2"/><path d="M167.86,157.4s-6.6,165.77,6.29,184.49" transform="translate(-78.69 -62.77)" fill="none" stroke="#ee2324" stroke-miterlimit="10" stroke-width="2"/><path d="M236.75,132s-18.62,156.86,0,205.52" transform="translate(-78.69 -62.77)" fill="none" stroke="#ee2324" stroke-miterlimit="10" stroke-width="2"/><path d="M287.25,125.65s-20.75,143.21-3.58,197.92" transform="translate(-78.69 -62.77)" fill="none" stroke="#ee2324" stroke-miterlimit="10" stroke-width="2"/></svg>