<svg id="Layer_1" data-name="Layer 1" xmlns="http://www.w3.org/2000/svg" viewBox="0 0 480.68 423.89"><title>2</title><path d="M128.79,374.29H373.87s47.55-74.72,64.93-123.93,12.8-104.79-29.27-126.66-90.61,14.58-123.43,53.76-51.56,17.34-66.78.91c-2.56-2.76-76.81-92.94-128.94-50.12S52,228.49,59.29,250.36,128.79,374.29,128.79,374.29Z" transform="translate(-9.61 -6.43)" fill="none" stroke="#121111" stroke-miterlimit="10" stroke-width="2"/><circle cx="241.71" cy="133.29" r="32.79" stroke="#121111" stroke-miterlimit="10"/><line x1="238.39" y1="72.43" x2="239" y2="118.72" fill="none" stroke="#231f20" stroke-miterlimit="10" stroke-width="5"/><path d="M247.29,94.29s-24.43-32.58-72.86,0V54s44.1,35.14,72.86,0C248.57,57,247.29,94.29,247.29,94.29Z" transform="translate(-9.61 -6.43)"/><path d="M248.57,54S273,86.57,321.43,54V94.29s-44.1-35.15-72.86,0C247.29,91.29,248.57,54,248.57,54Z" transform="translate(-9.61 -6.43)"/><path d="M229.93,79.52s32.43-24.62-.43-72.86l40.29-.23s-34.89,44.3.42,72.85C267.22,80.59,229.93,79.52,229.93,79.52Z" transform="translate(-9.61 -6.43)"/><polygon points="373.1 422.89 114.67 422.89 114.57 389.46 373 389.46 373.1 422.89" fill="none" stroke="#121111" stroke-miterlimit="10" stroke-width="2"/><path d="M146.14,429" transform="translate(-9.61 -6.43)" fill="none" stroke="#121111" stroke-miterlimit="10" stroke-width="2"/><path d="M156.43,395.57" transform="translate(-9.61 -6.43)" fill="none" stroke="#121111" stroke-miterlimit="10" stroke-width="2"/><path d="M122.61,429.4" transform="translate(-9.61 -6.43)" fill="none" stroke="#121111" stroke-miterlimit="10" stroke-width="2"/><path d="M132.89,396" transform="translate(-9.61 -6.43)" fill="none" stroke="#121111" stroke-miterlimit="10" stroke-width="2"/><path d="M169.29,429" transform="translate(-9.61 -6.43)" fill="none" stroke="#121111" stroke-miterlimit="10" stroke-width="2"/><path d="M179.57,395.57" transform="translate(-9.61 -6.43)" fill="none" stroke="#121111" stroke-miterlimit="10" stroke-width="2"/><path d="M195.11,429" transform="translate(-9.61 -6.43)" fill="none" stroke="#121111" stroke-miterlimit="10" stroke-width="2"/><path d="M205.4,395.57" transform="translate(-9.61 -6.43)" fill="none" stroke="#121111" stroke-miterlimit="10" stroke-width="2"/><path d="M218.53,429" transform="translate(-9.61 -6.43)" fill="none" stroke="#121111" stroke-miterlimit="10" stroke-width="2"/><path d="M228.82,395.57" transform="translate(-9.61 -6.43)" fill="none" stroke="#121111" stroke-miterlimit="10" stroke-width="2"/><path d="M244.31,429.32" transform="translate(-9.61 -6.43)" fill="none" stroke="#121111" stroke-miterlimit="10" stroke-width="2"/><path d="M254.59,395.89" transform="translate(-9.61 -6.43)" fill="none" stroke="#121111" stroke-miterlimit="10" stroke-width="2"/><path d="M265.07,429.32" transform="translate(-9.61 -6.43)" fill="none" stroke="#121111" stroke-miterlimit="10" stroke-width="2"/><path d="M275.35,395.89" transform="translate(-9.61 -6.43)" fill="none" stroke="#121111" stroke-miterlimit="10" stroke-width="2"/><path d="M291.39,429" transform="translate(-9.61 -6.43)" fill="none" stroke="#121111" stroke-miterlimit="10" stroke-width="2"/><path d="M301.68,395.57" transform="translate(-9.61 -6.43)" fill="none" stroke="#121111" stroke-miterlimit="10" stroke-width="2"/><path d="M316.29,429.32" transform="translate(-9.61 -6.43)" fill="none" stroke="#121111" stroke-miterlimit="10" stroke-width="2"/><path d="M326.57,395.89" transform="translate(-9.61 -6.43)" fill="none" stroke="#121111" stroke-miterlimit="10" stroke-width="2"/><path d="M340.43,429" transform="translate(-9.61 -6.43)" fill="none" stroke="#121111" stroke-miterlimit="10" stroke-width="2"/><path d="M350.72,395.57" transform="translate(-9.61 -6.43)" fill="none" stroke="#121111" stroke-miterlimit="10" stroke-width="2"/><path d="M366.1,429.32" transform="translate(-9.61 -6.43)" fill="none" stroke="#121111" stroke-miterlimit="10" stroke-width="2"/><path d="M376.39,395.89" transform="translate(-9.61 -6.43)" fill="none" stroke="#121111" stroke-miterlimit="10" stroke-width="2"/><circle cx="58.5" cy="333.22" r="16.07" fill="#231f20"/><circle cx="26.36" cy="264.11" r="16.07" fill="#231f20"/><circle cx="16.07" cy="184.8" r="16.07" fill="#231f20"/><circle cx="42.43" cy="110.31" r="16.07" fill="#231f20"/><circle cx="109.21" cy="79.5" r="16.07" fill="#231f20"/><ellipse cx="417.32" cy="332.62" rx="17.41" ry="16.07" fill="#231f20"/><ellipse cx="452.13" cy="263.51" rx="17.41" ry="16.07" fill="#231f20"/><ellipse cx="463.27" cy="184.2" rx="17.41" ry="16.07" fill="#231f20"/><ellipse cx="434.73" cy="109.71" rx="17.41" ry="16.07" fill="#231f20"/><ellipse cx="362.39" cy="78.9" rx="17.41" ry="16.07" fill="#231f20"/><path d="M148.12,373.6s-100.28-304.34,133.59,0Z" transform="translate(-9.61 -6.43)" fill="#231f20"/><path d="M363.45,373.6s90.93-304.34-121.14,0Z" transform="translate(-9.61 -6.43)" fill="#231f20"/></svg>