<svg id="Layer_2" data-name="Layer 2" xmlns="http://www.w3.org/2000/svg" viewBox="0 0 349.73 320.58"><title>3</title><path d="M425.84,336.43a74.26,74.26,0,0,1-147.13,14.25H223.24A74.26,74.26,0,1,1,85.62,300.06a39,39,0,0,1,5-9.88L218.74,108a38.41,38.41,0,0,1,62.84,0l128,182.11.07.09h0A73.71,73.71,0,0,1,425.84,336.43Z" transform="translate(-76.11 -91.66)"/><path d="M206.76,336.89c0,1.83-.08,3.64-.25,5.42a58.4,58.4,0,1,1-104.79-40.56.08.08,0,0,0,0,0,58.39,58.39,0,0,1,105,35.18Z" transform="translate(-76.11 -91.66)" fill="none" stroke="#f9f9fa" stroke-miterlimit="10" stroke-width="5"/><path d="M414.19,336.89a58.4,58.4,0,0,1-116.54,5.42c-.17-1.78-.25-3.59-.25-5.42a58.36,58.36,0,0,1,94.12-46.2v0A58.25,58.25,0,0,1,414.19,336.89Z" transform="translate(-76.11 -91.66)" fill="none" stroke="#f9f9fa" stroke-miterlimit="10" stroke-width="5"/><circle cx="71.25" cy="245.23" r="17.64" fill="#f9f9fa"/><circle cx="278.68" cy="245.23" r="17.64" fill="#f9f9fa"/><path d="M97.17,308.79,231.73,114.08a23.06,23.06,0,0,1,37.8-.18L407,308.79" transform="translate(-76.11 -91.66)" fill="none" stroke="#fff" stroke-miterlimit="10" stroke-width="4"/><rect x="130.65" y="227.59" width="90.89" height="23.06" fill="#fff"/><rect x="170.08" y="11.73" width="6.01" height="219.54" fill="#fff"/><rect x="66.21" y="149.61" width="219.18" height="4.37" fill="#fff"/><rect x="112.78" y="82.09" width="124.23" height="4.37" fill="#fff"/><path d="M242.29,364.8,214.9,412.24h71.2l-27.81-48.17a9,9,0,0,0-15.58,0L214.9,412.24h71.2L258.71,364.8A9.48,9.48,0,0,0,242.29,364.8Z" transform="translate(-76.11 -91.66)"/></svg>