<svg id="Layer_1" data-name="Layer 1" xmlns="http://www.w3.org/2000/svg" xmlns:xlink="http://www.w3.org/1999/xlink" viewBox="0 0 415.79 378.9"><defs><linearGradient id="linear-gradient" x1="494.36" y1="332.97" x2="494.36" y2="332.97" gradientUnits="userSpaceOnUse"><stop offset="0" stop-color="#fff"/><stop offset="1"/></linearGradient></defs><title>6</title><path d="M494.36,333" transform="translate(-43.35 -63.13)" stroke="#231f20" stroke-miterlimit="10" fill="url(#linear-gradient)"/><path d="M50.46,250S178.91,194.76,250,68.74c0,0,55.74,128.41,201.27,181.26,0,0-159,48.82-201.27,184.59C250,434.59,194.36,296.38,50.46,250Z" transform="translate(-43.35 -63.13)" fill="none" stroke="#ed2024" stroke-miterlimit="10" stroke-width="5"/><path d="M281,250.5a31.11,31.11,0,1,1-31.08-31.07A31.08,31.08,0,0,1,281,250.5Z" transform="translate(-43.35 -63.13)" fill="none" stroke="#ed1f24" stroke-miterlimit="10" stroke-width="5"/><path d="M252.89,73.34V219.41a30.63,30.63,0,0,0-7.58,1v-147Z" transform="translate(-43.35 -63.13)" fill="#ed2024"/><path d="M245.31,280.64a30.62,30.62,0,0,0,7.58.94V428.25h-7.58Z" transform="translate(-43.35 -63.13)" fill="#ed2024"/><path d="M56.46,246.21H217.1a28.08,28.08,0,0,0,1,7.58H56.46Z" transform="translate(-43.35 -63.13)" fill="#ed2024"/><path d="M282.76,253.79a28.07,28.07,0,0,0,1-7.58h160.4v7.58Z" transform="translate(-43.35 -63.13)" fill="#ed2024"/><path d="M187.4,151.69s60.39-25.63,119.17,0" transform="translate(-43.35 -63.13)" fill="none" stroke="#ed2024" stroke-miterlimit="10" stroke-width="4"/><path d="M195.63,347.27s62.23,15.73,103,0" transform="translate(-43.35 -63.13)" fill="none" stroke="#ed2024" stroke-miterlimit="10" stroke-width="4"/><path d="M131.2,201s-21,39.22,0,89.25" transform="translate(-43.35 -63.13)" fill="none" stroke="#ed2024" stroke-miterlimit="10" stroke-width="4"/><path d="M364.4,293.62s21.05-39.21,0-89.24" transform="translate(-43.35 -63.13)" fill="none" stroke="#ed2024" stroke-miterlimit="10" stroke-width="4"/><path d="M210.41,188.7s36.7-15.57,72.42,0" transform="translate(-43.35 -63.13)" fill="none" stroke="#ed2024" stroke-miterlimit="10" stroke-width="4"/><path d="M215.41,307.55s37.82,9.56,62.57,0" transform="translate(-43.35 -63.13)" fill="none" stroke="#ed2024" stroke-miterlimit="10" stroke-width="4"/><path d="M176.26,218.68s-12.8,23.83,0,54.23" transform="translate(-43.35 -63.13)" fill="none" stroke="#ed2024" stroke-miterlimit="10" stroke-width="4"/><path d="M318,275s12.79-23.83,0-54.23" transform="translate(-43.35 -63.13)" fill="none" stroke="#ed2024" stroke-miterlimit="10" stroke-width="4"/><circle cx="205.75" cy="187.37" r="15.97" fill="#ed2024"/></svg>